<svg width="320" height="1440" xmlns="http://www.w3.org/2000/svg">

 <g>
  <title>Layer 1</title>
  <path transform="rotate(-90 219.676 720)" id="svg_1" d="m-500.32447,628.37646l12,5.3c12,5.7 36,15.7 60,26.7c24,11 48,21 72,5.3c24,-16.3 48,-58.3 72,-42.6c24,16.3 48,90.3 72,106.6c24,15.7 48,-26.3 72,-32c24,-5.3 48,26.7 72,32c24,5.7 48,-16.3 72,-21.3c24,-5 48,5 72,5.3c24,-0.3 48,-10.3 72,0c24,10.7 48,42.7 72,37.4c24,-5.7 48,-47.7 72,-64c24,-15.7 48,-5.7 72,-10.7c24,-5 48,-27 72,-10.7c24,15.7 48,69.7 72,96c24,26.7 48,26.7 72,26.7c24,0 48,0 72,0c24,0 48,0 72,-26.7c24,-26.3 48,-80.3 72,-80c24,-0.3 48,53.7 72,69.4c24,16.3 48,-5.7 60,-16l12,-10.7l0,96l-12,0c-12,0 -36,0 -60,0c-24,0 -48,0 -72,0c-24,0 -48,0 -72,0c-24,0 -48,0 -72,0c-24,0 -48,0 -72,0c-24,0 -48,0 -72,0c-24,0 -48,0 -72,0c-24,0 -48,0 -72,0c-24,0 -48,0 -72,0c-24,0 -48,0 -72,0c-24,0 -48,0 -72,0c-24,0 -48,0 -72,0c-24,0 -48,0 -72,0c-24,0 -48,0 -72,0c-24,0 -48,0 -72,0c-24,0 -48,0 -72,0c-24,0 -48,0 -72,0c-24,0 -48,0 -72,0c-24,0 -48,0 -72,0c-24,0 -48,0 -60,0l-12,0l0,-192z" fill="#F6F6F6"/>
 </g>
</svg>